#!OML:ASF H:\Not Pregnant\Project 1\Capture day 1\Session 1\non-pregnant.ASF
:FULLY-SPECIFIED
:DEGREES
447
root 5.15124 9.06424 11.3739 -27.872 -24.314 -2.0311
lowerback 12.799 1.09495 4.91288
upperback 6.52331 1.91096 -1.67674
thorax -0.0820477 1.08087 -4.76187
lowerneck 19.0535 -9.57157 -30.4518
upperneck 0.621287 -21.1505 40.4396
head 5.55572 -12.8318 20.0738
rclavicle -3.24019e-014 -1.59028e-015
rhumerus -39.6028 6.3417 -76.1218
rradius 86.6735
rwrist 21.3363
rhand 2.87189 -10.6743
rfingers 7.12502
rthumb 28.3381 -38.5499
lclavicle -3.24019e-014 -1.59028e-015
lhumerus -40.1872 -17.1577 68.393
lradius 92.7082
lwrist 9.13751
lhand 7.28308 2.50297
lfingers 7.12502
lthumb 32.5451 29.5981
rfemur -61.069 -4.57295 23.3286
rtibia 102.499
rfoot -12.3597 10.6505
rtoes -18.7196
lfemur -60.1656 25.2011 -15.3893
ltibia 103.785
lfoot -15.0926 -13.4255
ltoes -18.3968
448
root 5.15361 9.0627 11.3706 -27.9254 -24.3147 -2.06796
lowerback 12.8097 1.09532 4.94085
upperback 6.54956 1.91456 -1.66905
thorax -0.0587092 1.08444 -4.76993
lowerneck 19.0999 -9.55063 -30.4707
upperneck 0.652213 -21.1477 40.4539
head 5.56038 -12.8371 20.0969
rclavicle 2.22639e-014 -3.81667e-014
rhumerus -39.5561 6.31901 -76.1093
rradius 86.6328
rwrist 21.348
rhand 2.88244 -10.6812
rfingers 7.12502
rthumb 28.3482 -38.5552
lclavicle 2.22639e-014 -3.81667e-014
lhumerus -40.1088 -17.1517 68.3955
lradius 92.6733
lwrist 9.17937
lhand 7.31179 2.51366
lfingers 7.12502
lthumb 32.5724 29.6031
rfemur -60.9914 -4.5512 23.3505
rtibia 102.472
rfoot -12.3433 10.6183
rtoes -18.7545
lfemur -60.1052 25.2392 -15.3396
ltibia 103.772
lfoot -15.0756 -13.477
ltoes -18.3531
449
root 5.15589 9.06116 11.3676 -27.9852 -24.3148 -2.1058
lowerback 12.8188 1.09212 4.97156
upperback 6.5795 1.9135 -1.66445
thorax -0.0308857 1.08598 -4.78212
lowerneck 19.1408 -9.5294 -30.4912
upperneck 0.693028 -21.1455 40.4621
head 5.56817 -12.8419 20.1166
rclavicle 1.09332e-015 -3.18055e-015
rhumerus -39.5041 6.3012 -76.1059
rradius 86.5884
rwrist 21.3644
rhand 2.89133 -10.6902
rfingers 7.12502
rthumb 28.3567 -38.5627
lclavicle 1.09332e-015 -3.18055e-015
lhumerus -40.031 -17.1393 68.3886
lradius 92.6379
lwrist 9.22541
lhand 7.34488 2.526
lfingers 7.12502
lthumb 32.6039 29.609
rfemur -60.9044 -4.5323 23.3717
rtibia 102.444
rfoot -12.3288 10.5889
rtoes -18.7772
lfemur -60.035 25.2781 -15.2855
ltibia 103.76
lfoot -15.0631 -13.5275
ltoes -18.314
450
root 5.15807 9.05949 11.3648 -28.0561 -24.3154 -2.1429
lowerback 12.8348 1.08686 5.00355
upperback 6.61274 1.91 -1.66208
thorax -0.00341216 1.08643 -4.79728
lowerneck 19.1939 -9.50894 -30.5163
upperneck 0.728852 -21.1464 40.463
head 5.57283 -12.8488 20.1327
rclavicle -6.74874e-014 7.15625e-015
rhumerus -39.4493 6.28564 -76.1088
rradius 86.5412
rwrist 21.3828
rhand 2.90102 -10.7041
rfingers 7.12502
rthumb 28.366 -38.5752
lclavicle -6.74874e-014 7.15625e-015
lhumerus -39.9564 -17.1229 68.376
lradius 92.6043
lwrist 9.27563
lhand 7.37832 2.53677
lfingers 7.12502
lthumb 32.6357 29.6131
rfemur -60.8047 -4.51639 23.3916
rtibia 102.417
rfoot -12.3155 10.5627
rtoes -18.7812
lfemur -59.9506 25.3203 -15.2256
ltibia 103.748
lfoot -15.0539 -13.5803
ltoes -18.2604
451
root 5.16019 9.05786 11.3623 -28.1359 -24.3174 -2.17969
lowerback 12.8568 1.08251 5.04
upperback 6.64804 1.90843 -1.66073
thorax 0.0234578 1.08801 -4.81643
lowerneck 19.2644 -9.48785 -30.5522
upperneck 0.756044 -21.1515 40.4639
head 5.57522 -12.86 20.1516
rclavicle 5.36719e-015 6.2816e-014
rhumerus -39.3974 6.26787 -76.1126
rradius 86.4944
rwrist 21.3976
rhand 2.90894 -10.7232
rfingers 7.12502
rthumb 28.3735 -38.593
lclavicle 5.36719e-015 6.2816e-014
lhumerus -39.8834 -17.1101 68.3638
lradius 92.5715
lwrist 9.33135
lhand 7.41257 2.54681
lfingers 7.12502
lthumb 32.6683 29.6164
rfemur -60.6935 -4.50238 23.4115
rtibia 102.39
rfoot -12.3039 10.5377
rtoes -18.776
lfemur -59.8532 25.3648 -15.1594
ltibia 103.736
lfoot -15.0481 -13.6362
ltoes -18.2034
452
root 5.16223 9.0565 11.3601 -28.2156 -24.3202 -2.21414
lowerback 12.8747 1.08091 5.07721
upperback 6.68055 1.91052 -1.65798
thorax 0.050057 1.09141 -4.83489
lowerneck 19.3514 -9.46472 -30.6024
upperneck 0.779043 -21.1602 40.4621
head 5.57649 -12.8747 20.1728
rclavicle -4.88016e-014 -2.3059e-014
rhumerus -39.3535 6.24929 -76.1105
rradius 86.4465
rwrist 21.4068
rhand 2.91542 -10.7444
rfingers 7.12502
rthumb 28.3797 -38.6131
lclavicle -4.88016e-014 -2.3059e-014
lhumerus -39.8176 -17.1025 68.3593
lradius 92.5416
lwrist 9.39382
lhand 7.44903 2.55771
lfingers 7.12502
lthumb 32.703 29.6201
rfemur -60.5812 -4.48962 23.4293
rtibia 102.363
rfoot -12.2941 10.5143
rtoes -18.7734
lfemur -59.7531 25.4102 -15.0945
ltibia 103.723
lfoot -15.0473 -13.692
ltoes -18.1495
453
root 5.16418 9.05531 11.3581 -28.2988 -24.3215 -2.24721
lowerback 12.8963 1.0818 5.1159
upperback 6.71027 1.91635 -1.65454
thorax 0.0722558 1.09655 -4.85409
lowerneck 19.4469 -9.43999 -30.6598
upperneck 0.803129 -21.1708 40.4583
head 5.57795 -12.8913 20.1949
rclavicle -2.19657e-014 2.70347e-014
rhumerus -39.318 6.2264 -76.1031
rradius 86.3967
rwrist 21.4103
rhand 2.92284 -10.7593
rfingers 7.12502
rthumb 28.3868 -38.6269
lclavicle -2.19657e-014 2.70347e-014
lhumerus -39.757 -17.1067 68.3618
lradius 92.5139
lwrist 9.46405
lhand 7.48282 2.57091
lfingers 7.12502
lthumb 32.7351 29.6266
rfemur -60.4636 -4.48116 23.4446
rtibia 102.336
rfoot -12.2843 10.4952
rtoes -18.7678
lfemur -59.6467 25.4539 -15.0289
ltibia 103.71
lfoot -15.0459 -13.7499
ltoes -18.0954
454
root 5.16605 9.05458 11.3565 -28.3772 -24.3219 -2.27792
lowerback 12.9085 1.08267 5.15253
upperback 6.73728 1.92159 -1.65095
thorax 0.0964529 1.10138 -4.87162
lowerneck 19.5294 -9.41615 -30.717
upperneck 0.84162 -21.1819 40.4446
head 5.58424 -12.9058 20.2101
rclavicle 4.67144e-015 1.74931e-014
rhumerus -39.2839 6.20777 -76.0934
rradius 86.3421
rwrist 21.4076
rhand 2.92807 -10.7604
rfingers 7.12502
rthumb 28.3918 -38.6271
lclavicle 4.67144e-015 1.74931e-014
lhumerus -39.703 -17.112 68.3667
lradius 92.489
lwrist 9.54133
lhand 7.51461 2.58726
lfingers 7.12502
lthumb 32.7654 29.6367
rfemur -60.349 -4.47556 23.4572
rtibia 102.308
rfoot -12.2779 10.4781
rtoes -18.7738
lfemur -59.5428 25.4954 -14.968
ltibia 103.695
lfoot -15.0447 -13.8058
ltoes -18.0452
455
root 5.16785 9.05428 11.3553 -28.452 -24.3231 -2.30524
lowerback 12.9137 1.08171 5.18458
upperback 6.76523 1.9235 -1.64901
thorax 0.124871 1.1046 -4.88763
lowerneck 19.5758 -9.39824 -30.763
upperneck 0.902289 -21.1935 40.4179
head 5.59961 -12.9156 20.2113
rclavicle -5.07895e-014 -2.06736e-014
rhumerus -39.2407 6.19714 -76.0876
rradius 86.2823
rwrist 21.4001
rhand 2.9329 -10.7497
rfingers 7.12502
rthumb 28.3964 -38.6157
lclavicle -5.07895e-014 -2.06736e-014
lhumerus -39.6487 -17.1124 68.3651
lradius 92.4661
lwrist 9.62402
lhand 7.54447 2.60833
lfingers 7.12502
lthumb 32.7938 29.6518
rfemur -60.2369 -4.4702 23.4671
rtibia 102.28
rfoot -12.2739 10.4635
rtoes -18.7845
lfemur -59.4403 25.5378 -14.911
ltibia 103.68
lfoot -15.0432 -13.8613
ltoes -17.9856
456
root 5.16958 9.0543 11.3544 -28.5224 -24.3257 -2.32979
lowerback 12.913 1.0784 5.21288
upperback 6.7932 1.92153 -1.64943
thorax 0.155901 1.1059 -4.90335
lowerneck 19.6 -9.38369 -30.7991
upperneck 0.974071 -21.2032 40.3817
head 5.61813 -12.9211 20.2029
rclavicle -4.53229e-014 3.18055e-015
rhumerus -39.1886 6.19414 -76.0883
rradius 86.2174
rwrist 21.3881
rhand 2.93695 -10.735
rfingers 7.12502
rthumb 28.4003 -38.6003
lclavicle -4.53229e-014 3.18055e-015
lhumerus -39.594 -17.1084 68.3548
lradius 92.443
lwrist 9.70854
lhand 7.56742 2.6293
lfingers 7.12502
lthumb 32.8156 29.6682
rfemur -60.129 -4.46475 23.4751
rtibia 102.252
rfoot -12.2736 10.4516
rtoes -18.8065
lfemur -59.341 25.5818 -14.8574
ltibia 103.665
lfoot -15.0419 -13.9151
ltoes -17.9215
457
root 5.1712 9.05466 11.3537 -28.5867 -24.3278 -2.35213
lowerback 12.9059 1.07638 5.24272
upperback 6.82048 1.92112 -1.65364
thorax 0.190099 1.10821 -4.92393
lowerneck 19.6188 -9.37157 -30.8301
upperneck 1.04571 -21.2139 40.3467
head 5.63758 -12.9266 20.1931
rclavicle -5.31749e-014 -3.18055e-015
rhumerus -39.1356 6.18533 -76.0922
rradius 86.151
rwrist 21.3716
rhand 2.93914 -10.713
rfingers 7.12502
rthumb 28.4024 -38.5779
lclavicle -5.31749e-014 -3.18055e-015
lhumerus -39.5348 -17.1138 68.3383
lradius 92.421
lwrist 9.79289
lhand 7.58914 2.65074
lfingers 7.12502
lthumb 32.8363 29.6853
rfemur -60.0269 -4.45905 23.4813
rtibia 102.224
rfoot -12.2758 10.4403
rtoes -18.8288
lfemur -59.2466 25.6247 -14.8083
ltibia 103.649
lfoot -15.0407 -13.9648
ltoes -17.8603
458
root 5.17263 9.05513 11.3532 -28.6458 -24.3308 -2.37145
lowerback 12.897 1.07639 5.27294
upperback 6.84516 1.92338 -1.66124
thorax 0.223051 1.11187 -4.9486
lowerneck 19.6398 -9.36163 -30.8543
upperneck 1.11216 -21.225 40.3107
head 5.65414 -12.9323 20.1808
rclavicle -5.33737e-014 2.3059e-014
rhumerus -39.0849 6.17054 -76.1001
rradius 86.084
rwrist 21.3531
rhand 2.93882 -10.6924
rfingers 7.12502
rthumb 28.4021 -38.5574
lclavicle -5.33737e-014 2.3059e-014
lhumerus -39.4745 -17.1285 68.3168
lradius 92.3991
lwrist 9.87255
lhand 7.60942 2.67062
lfingers 7.12502
lthumb 32.8556 29.7012
rfemur -59.9319 -4.45131 23.4863
rtibia 102.199
rfoot -12.279 10.4289
rtoes -18.8525
lfemur -59.1587 25.6688 -14.7629
ltibia 103.634
lfoot -15.043 -14.0134
ltoes -17.7938
459
root 5.17382 9.05539 11.3529 -28.7042 -24.3334 -2.38944
lowerback 12.8942 1.08045 5.30631
upperback 6.86613 1.93176 -1.67046
thorax 0.249744 1.11849 -4.97778
lowerneck 19.6711 -9.35117 -30.8767
upperneck 1.17103 -21.236 40.2788
head 5.66718 -12.9393 20.1715
rclavicle -4.77083e-015 2.22639e-014
rhumerus -39.0483 6.14478 -76.1074
rradius 86.0233
rwrist 21.3315
rhand 2.93829 -10.6792
rfingers 7.12502
rthumb 28.4016 -38.5442
lclavicle -4.77083e-015 2.22639e-014
lhumerus -39.4139 -17.1605 68.2975
lradius 92.3771
lwrist 9.94716
lhand 7.63261 2.69227
lfingers 7.12502
lthumb 32.8776 29.7182
rfemur -59.8401 -4.44429 23.4911
rtibia 102.177
rfoot -12.283 10.4172
rtoes -18.8819
lfemur -59.0737 25.7132 -14.7181
ltibia 103.621
lfoot -15.044 -14.0613
ltoes -17.7302
